# xmcd
#
# Track frame offsets:
#	150
#	12370
#	25505
#	40881
#	57846
#	72223
#	85828
#	95771
#	108622
#	122072
#	136904
#	151473
#	171046
#	183726
#	198466
#	212857
#	227734
#	241037
#	255923
#	268505
#
# Disc length: 3772 seconds
#
# Revision: 1
# Processed by: cddbd v1.5.2PL0 Copyright (c) Steve Scherf et al.
# Submitted via: audiograbber 1.83.01
#
DISCID=0f0eba14
DTITLE=Gene Watson - Matters Of The Heart
DYEAR=2008
DGENRE=Country
TTITLE0=Fourteen Carat Mind
TTITLE1=Sometimes I Get Lucky And Forget
TTITLE2=Maybe I Should Have Been Listening
TTITLE3=What She Don't Know Won't Hurt Her
TTITLE4=You Sure Make Cheatin' Seem Easy
TTITLE5=You're Just Another Beer Drinkin' Song
TTITLE6=The Girl I Used To Run Around On
TTITLE7=`Til Melinda Comes Around
TTITLE8=Roads And Other Reasons
TTITLE9=Old Loves Never Die
TTITLE10=Baby Me Baby
TTITLE11=You Waltzed Yourself Right Into My Life
TTITLE12=If I Were You I'd Fall In Love With Me
TTITLE13=Lonely Me
TTITLE14=From Cotton To Satin
TTITLE15=Three
TTITLE16=Come Back Home
TTITLE17=Somethin' `Bout Bein' Gone
TTITLE18=Thinking `Bout Leaving
TTITLE19=This Dream's On Me
EXTD=
EXTT0=
EXTT1=
EXTT2=
EXTT3=
EXTT4=
EXTT5=
EXTT6=
EXTT7=
EXTT8=
EXTT9=
EXTT10=
EXTT11=
EXTT12=
EXTT13=
EXTT14=
EXTT15=
EXTT16=
EXTT17=
EXTT18=
EXTT19=
PLAYORDER=
